# xmcd
#
# Track frame offsets:
#	150
#	3629
#	5273
#	6906
#	8561
#	10186
#	11834
#	13465
#	15127
#	16759
#	20545
#	24264
#	26955
#	29629
#	32336
#	35042
#	37747
#	40434
#	43163
#	45893
#	49639
#	53396
#	57139
#	60879
#	63686
#	66492
#	69236
#	71998
#	74763
#	77536
#	80295
#	83037
#	85751
#	88487
#	91201
#	93930
#	96707
#	99505
#	102262
#	105029
#	107742
#	110471
#	113213
#	115954
#	118682
#	121428
#	125822
#	130180
#	134593
#	150342
#
# Disc length: 2053 seconds
#
# Revision: 0
# Processed by: cddbd v1.5.1PL2 Copyright (c) Steve Scherf et al.
# Submitted via: dBpowerAMP V4.0
#
DISCID=85080332
DTITLE=Rikky Rooksby and Paul Ewers - First Guitar Blues Licks
DYEAR=1900
DGENRE=Blues
TTITLE0=Tuning notes
TTITLE1=Rhythm in E Figure 1-1
TTITLE2=Rhythm in E Figure 1-2
TTITLE3=Rhythm in E Figure 2-1
TTITLE4=Rhythm in E Figure 2-2
TTITLE5=Rhythm in E Figure 3-1
TTITLE6=Rhythm in E Figure 3-2
TTITLE7=Rhythm in E Figure 4-1
TTITLE8=Rhythm in E Figure 4-2
TTITLE9=12-bar in E: Lost Sun Blues Figure 5
TTITLE10=12-bar in E: Lost Sun Blues Backing
TTITLE11=Rhythm phrases in E using two notes Figure 6-1
TTITLE12=Rhythm phrases in E using two notes Figure 6-2
TTITLE13=Rhythm phrases in E using two notes Figure 7-1
TTITLE14=Rhythm phrases in E using two notes Figure 7-2
TTITLE15=Rhythm phrases in E using two notes Figure 8-1
TTITLE16=Rhythm phrases in E using two notes Figure 8-2
TTITLE17=Rhythm phrases in E using two notes Figure 9-1
TTITLE18=Rhythm phrases in E using two notes Figure 9-2
TTITLE19=12-bar in E: Storm Warning  Figure 10
TTITLE20=12-bar in E: Storm Warning Backing
TTITLE21=12-bar in A: Heavy Rain Blues Figure 11
TTITLE22=12-bar in A: Heavy Rain Blues Backing
TTITLE23=Turnaround phrases in E Figure 12-1
TTITLE24=Turnaround phrases in E Figure 12-2
TTITLE25=Turnaround phrases in A Figure 13-1
TTITLE26=Turnaround phrases in A Figure 13-2
TTITLE27=8-bar lead phrases in E Figure 14-1
TTITLE28=8-bar lead phrases in E Figure 14-2
TTITLE29=More lead phrases in E Figure 15-1
TTITLE30=More lead phrases in E Figure 15-2
TTITLE31=8-bar lead phrases in A Figure 16-1
TTITLE32=8-bar lead phrases in A Figure 16-2
TTITLE33=More lead phrases in A Figure 17-1
TTITLE34=More lead phrases in A Figure 17-2
TTITLE35=Chordal lead solo in E Figure 18-1
TTITLE36=Chordal lead solo in E Figure 18-2
TTITLE37=Shifting intro E major Figure 19-1
TTITLE38=Shifting intro E major Figure 19-2
TTITLE39=More E major lead Figure 20-1
TTITLE40=More E major lead Figure 20-2
TTITLE41=Shifting in A major Figure 21-1
TTITLE42=Shifting in A major Figure 21-2
TTITLE43=More A major lead Figure 22-1
TTITLE44=More A major lead Figure 22-2
TTITLE45=12-bar in A: Rising River Blues Figure 23
TTITLE46=12-bar in A: Rising River Blues Backing
TTITLE47=12-bar in E: Floodwater Blues Figure 24
TTITLE48=12-bar in E: Floodwater Blues Backing
TTITLE49=DATA
EXTD=
EXTT0=
EXTT1=
EXTT2=
EXTT3=
EXTT4=
EXTT5=
EXTT6=
EXTT7=
EXTT8=
EXTT9=
EXTT10=
EXTT11=
EXTT12=
EXTT13=
EXTT14=
EXTT15=
EXTT16=
EXTT17=
EXTT18=
EXTT19=
EXTT20=
EXTT21=
EXTT22=
EXTT23=
EXTT24=
EXTT25=
EXTT26=
EXTT27=
EXTT28=
EXTT29=
EXTT30=
EXTT31=
EXTT32=
EXTT33=
EXTT34=
EXTT35=
EXTT36=
EXTT37=
EXTT38=
EXTT39=
EXTT40=
EXTT41=
EXTT42=
EXTT43=
EXTT44=
EXTT45=
EXTT46=
EXTT47=
EXTT48=
EXTT49=
PLAYORDER=
